mtllib VideoCamera.mtl
o VideoCamera_Mesh
v -0.018281 0.019319 -0.028041
v -0.018063 0.019316 -0.028032
v -0.018278 0.019538 -0.028042
v -0.018060 0.019534 -0.028033
v -0.018272 0.019544 -0.028196
v -0.018053 0.019541 -0.028187
v -0.018275 0.019325 -0.028195
v -0.018057 0.019322 -0.028186
v -0.018021 0.019641 -0.028177
v -0.019573 0.019645 -0.028199
v -0.017864 0.018079 -0.028173
v -0.019738 0.018083 -0.028200
v -0.017878 0.018062 -0.031954
v -0.019752 0.018067 -0.031981
v -0.018035 0.019625 -0.031958
v -0.019588 0.019628 -0.031980
v -0.018327 0.019334 -0.028182
v -0.019268 0.019335 -0.028193
v -0.019271 0.018317 -0.028192
v -0.018330 0.018316 -0.028181
v -0.019736 0.018948 -0.028201
v -0.019750 0.018931 -0.031982
v -0.017875 0.018927 -0.031955
v -0.017861 0.018944 -0.028174
v -0.018087 0.018834 -0.028179
v -0.019511 0.018836 -0.028196
v -0.017824 0.017783 -0.028758
v -0.019740 0.017750 -0.028849
v -0.019828 0.017734 -0.030754
v -0.017911 0.017727 -0.030720
v -0.019899 0.018772 -0.028468
v -0.019885 0.018762 -0.030934
v -0.017814 0.018752 -0.030890
v -0.017724 0.018761 -0.028422
v -0.017838 0.018002 -0.028474
v -0.019711 0.017973 -0.028555
v -0.017899 0.017950 -0.030967
v -0.019773 0.017954 -0.030994
v -0.018349 0.019626 -0.031304
v -0.019295 0.019629 -0.031318
v -0.019318 0.019630 -0.028911
v -0.018372 0.019628 -0.028897
v -0.018470 0.019850 -0.031311
v -0.019177 0.019851 -0.031321
v -0.019195 0.019853 -0.029315
v -0.018487 0.019851 -0.029305
v -0.018797 0.019643 -0.028188
v -0.018801 0.018081 -0.028186
v -0.018801 0.018188 -0.028187
v -0.018797 0.019464 -0.028188
v -0.018806 0.018188 -0.027778
v -0.019516 0.018836 -0.027787
v -0.019276 0.018318 -0.027783
v -0.018802 0.019464 -0.027779
v -0.019272 0.019336 -0.027784
v -0.018092 0.018835 -0.027770
v -0.018335 0.018317 -0.027772
v -0.018332 0.019335 -0.027773
v -0.018806 0.018345 -0.027778
v -0.018804 0.018833 -0.027778
v -0.019341 0.018834 -0.027785
v -0.019160 0.018443 -0.027782
v -0.018802 0.019307 -0.027779
v -0.019157 0.019211 -0.027783
v -0.018267 0.018833 -0.027772
v -0.018451 0.018442 -0.027774
v -0.018448 0.019210 -0.027775
v -0.018832 0.019851 -0.029906
vt 0.090069 0.275521
vt 0.090069 0.275521
vt 0.090069 0.275521
vt 0.090069 0.275521
vt 0.090069 0.275521
vt 0.090069 0.275521
vt 0.090069 0.275521
vt 0.090069 0.275521
vt 0.090069 0.275521
vt 0.090069 0.275521
vt 0.090069 0.275521
vt 0.090069 0.275521
vt 0.090069 0.275521
vt 0.090069 0.275521
vt 0.090069 0.275521
vt 0.090069 0.275521
vt 0.090069 0.275521
vt 0.090069 0.275521
vt 0.090069 0.275521
vt 0.090069 0.275521
vt 0.090069 0.275521
vt 0.090069 0.275521
vt 0.090069 0.275521
vt 0.090069 0.275521
vt 0.090069 0.275521
vt 0.090069 0.275521
vt 0.090069 0.275521
vt 0.090069 0.275521
vt 0.090069 0.275521
vt 0.090069 0.275521
vt 0.090069 0.275521
vt 0.090069 0.275521
vt 0.090069 0.275521
vt 0.090069 0.275521
vt 0.090069 0.275521
vt 0.090069 0.275521
vt 0.090069 0.275521
vt 0.090069 0.275521
vt 0.090069 0.275521
vt 0.090069 0.275521
vt 0.090069 0.275521
vt 0.090069 0.275521
vt 0.090069 0.275521
vt 0.423656 0.035445
vt 0.423656 0.035445
vt 0.423656 0.035445
vt 0.423656 0.035445
vt 0.423656 0.035445
vt 0.423656 0.035445
vt 0.423656 0.035445
vt 0.423656 0.035445
vt 0.107975 0.011158
vt 0.107975 0.011158
vt 0.107975 0.011158
vt 0.107975 0.011158
vt 0.107975 0.011158
vt 0.107975 0.011158
vt 0.107975 0.011158
vt 0.107975 0.011158
vt 0.107975 0.011158
vt 0.090517 0.301975
vt 0.090517 0.301975
vt 0.090517 0.301975
vt 0.090517 0.301975
vt 0.090517 0.301975
vt 0.090517 0.301975
vt 0.090517 0.301975
vt 0.090517 0.301975
vt 0.090517 0.301975
vt 0.090517 0.301975
vt 0.090517 0.301975
vt 0.090517 0.301975
vt 0.090517 0.301975
vt 0.090517 0.301975
vt 0.090517 0.301975
vt 0.090517 0.301975
vt 0.090517 0.301975
vt 0.090517 0.301975
vt 0.090517 0.301975
vt 0.090517 0.301975
vt 0.090517 0.301975
vt 0.090517 0.301975
vt 0.090517 0.301975
vt 0.090517 0.301975
vn 0.0144 -0.0011 -0.9999
vn -0.9941 -0.1067 0.0176
vn 0.9948 -0.0946 -0.0383
vn 0.9948 -0.0945 -0.0383
vn -0.0159 0.0011 0.9999
vn -0.0186 0.0029 0.9998
vn -0.0153 0.0011 0.9999
vn -0.0160 0.0059 0.9999
vn -0.0184 0.0019 0.9998
vn -0.0186 0.0007 0.9998
vn -0.0185 0.0007 0.9998
vn -0.0171 -0.0009 0.9999
vn -0.0171 0.0010 0.9999
vn -0.0166 0.0011 0.9999
vn -0.0185 0.0015 0.9998
vn -0.0187 0.0017 0.9998
vn -0.0184 0.0004 0.9998
vn -0.0173 0.0033 0.9998
vn -0.9738 0.2273 0.0031
vn -0.9738 0.2273 0.0034
vn -0.9738 0.2273 0.0033
vn 0.9749 0.2225 -0.0057
vn 0.9749 0.2225 -0.0058
vn -0.0185 -0.0005 0.9998
vn -0.0160 -0.0036 0.9999
vn -0.0138 -0.7949 0.6066
vn -0.0138 -0.7948 0.6067
vn 0.0080 -0.7395 -0.6731
vn 0.0080 -0.7394 -0.6732
vn -0.5914 0.8063 -0.0038
vn -0.5914 0.8064 -0.0038
vn -0.7776 -0.1460 -0.6116
vn -0.7775 -0.1460 -0.6117
vn -0.6830 -0.3069 0.6628
vn 0.6178 0.7862 -0.0154
vn 0.6178 0.7862 -0.0153
vn 0.6177 0.7862 -0.0154
vn 0.6617 -0.2596 0.7034
vn 0.8198 -0.1655 -0.5482
vn -0.0066 -0.9550 0.2966
vn -0.9971 0.0024 -0.0765
vn 0.9965 -0.0024 0.0840
vn 0.0055 -0.9148 -0.4038
vn 0.0036 -0.9148 -0.4038
vn -0.9967 0.0024 -0.0813
vn -0.9967 0.0023 -0.0813
vn 0.9967 -0.0024 0.0813
vn 0.0055 -0.9998 0.0184
vn 0.0059 -0.9998 0.0183
vn 0.0054 -0.9998 0.0184
vn 0.0025 1.0000 -0.0012
vn 0.0024 1.0000 -0.0009
vn 0.0272 0.9996 -0.0040
vn 0.0027 0.9998 -0.0200
vn -0.0179 0.9998 -0.0040
vn 0.0142 0.3899 -0.9207
vn 0.0143 0.3899 -0.9207
vn -0.9689 0.2470 -0.0143
vn -0.0123 0.3920 0.9199
vn 0.9701 0.2423 0.0137
vn 0.9701 0.2422 0.0137
vn 0.9701 0.2423 0.0138
vn 0.0025 1.0000 -0.0011
vn 0.0025 1.0000 -0.0013
vn 0.0024 1.0000 -0.0011
vn -0.0059 -0.9688 0.2477
vn 0.0029 -0.9614 0.2751
vn 0.0022 1.0000 -0.0009
vn 0.0027 1.0000 -0.0009
vn -0.0415 0.0039 0.9991
vn -0.0414 0.0039 0.9991
vn 0.0124 0.9991 0.0411
vn -0.0124 -0.9991 -0.0411
vn 0.9990 -0.0141 0.0415
vn -0.9990 0.0141 -0.0415
vn -0.0118 0.0011 0.9999
vn -0.0117 0.0011 0.9999
vn -0.9076 -0.4198 -0.0102
vn -0.2660 -0.9640 -0.0021
vn -0.2660 -0.9640 -0.0020
vn -0.2632 0.9647 -0.0041
vn -0.8989 0.4381 -0.0110
vn 0.2632 -0.9647 0.0042
vn 0.9049 -0.4254 0.0111
vn 0.2660 0.9640 0.0021
vn 0.9016 0.4325 0.0101
usemtl Grey
s 1
f 13/1/1 14/2/1 22/3/1
f 13/1/1 22/3/1 23/4/1
f 32/5/2 28/6/2 31/7/2
f 28/6/2 32/5/2 29/8/2
f 33/9/3 34/10/3 27/11/4
f 33/9/3 27/11/4 30/12/3
f 47/13/5 18/14/6 50/15/7
f 18/14/6 47/13/5 10/16/8
f 21/17/9 12/18/10 26/19/11
f 26/19/11 12/18/10 19/20/12
f 19/20/12 48/21/13 49/22/14
f 48/21/13 19/20/12 12/18/10
f 25/23/15 11/24/16 24/25/17
f 11/24/16 25/23/15 20/26/18
f 22/3/19 21/17/20 10/16/21
f 22/3/19 10/16/21 16/27/19
f 23/4/1 22/3/1 16/27/1
f 23/4/1 16/27/1 15/28/1
f 24/25/22 23/4/22 15/28/23
f 24/25/22 15/28/23 9/29/22
f 24/25/17 17/30/24 25/23/15
f 17/30/24 24/25/17 9/29/25
f 18/14/6 21/17/9 26/19/11
f 21/17/9 18/14/6 10/16/8
f 36/31/26 27/11/26 35/32/27
f 27/11/26 36/31/26 28/6/26
f 30/12/28 29/8/29 38/33/29
f 30/12/28 38/33/29 37/34/29
f 21/17/30 22/3/31 32/5/31
f 21/17/30 32/5/31 31/7/31
f 29/8/32 32/5/33 38/33/33
f 22/3/32 38/33/33 32/5/33
f 31/7/34 28/6/34 36/31/34
f 36/31/34 21/17/34 31/7/34
f 23/4/35 24/25/36 33/9/37
f 33/9/37 24/25/36 34/10/36
f 34/10/38 35/32/38 27/11/38
f 35/32/38 34/10/38 24/25/38
f 33/9/39 30/12/39 37/34/39
f 37/34/39 23/4/39 33/9/39
f 36/31/40 48/21/40 12/18/40
f 12/18/41 21/17/41 36/31/41
f 24/25/42 11/24/42 35/32/42
f 38/33/43 13/1/44 37/34/44
f 13/1/44 38/33/43 14/2/44
f 22/3/45 14/2/46 38/33/45
f 13/1/47 23/4/47 37/34/47
f 28/6/48 30/12/49 27/11/50
f 30/12/49 28/6/48 29/8/50
f 15/28/51 16/27/51 40/35/51
f 15/28/51 40/35/51 39/36/52
f 16/27/53 10/16/53 41/37/53
f 16/27/53 41/37/53 40/35/53
f 41/37/54 47/13/54 42/38/54
f 9/29/55 15/28/55 39/36/55
f 9/29/55 39/36/55 42/38/55
f 40/35/56 43/39/57 39/36/56
f 43/39/57 40/35/56 44/40/56
f 40/35/58 41/37/58 45/41/58
f 40/35/58 45/41/58 44/40/58
f 41/37/59 42/38/59 46/42/59
f 41/37/59 46/42/59 45/41/59
f 39/36/60 46/42/61 42/38/62
f 46/42/61 39/36/60 43/39/60
f 44/40/63 68/43/64 43/39/65
f 10/16/54 47/13/54 41/37/54
f 42/38/54 47/13/54 9/29/54
f 11/24/66 48/21/66 35/32/66
f 35/32/67 48/21/67 36/31/67
f 48/21/13 20/26/18 49/22/14
f 20/26/18 48/21/13 11/24/16
f 47/13/5 17/30/24 9/29/25
f 17/30/24 47/13/5 50/15/7
f 46/42/68 43/39/65 68/43/64
f 45/41/69 68/43/64 44/40/63
f 46/42/68 68/43/64 45/41/69
usemtl Red
f 4/44/70 3/45/70 1/46/70
f 4/44/70 1/46/70 2/47/71
f 6/48/72 3/45/72 4/44/72
f 3/45/72 6/48/72 5/49/72
f 2/47/73 1/46/73 7/50/73
f 2/47/73 7/50/73 8/51/73
f 8/51/74 4/44/74 2/47/74
f 4/44/74 8/51/74 6/48/74
f 3/45/75 7/50/75 1/46/75
f 7/50/75 3/45/75 5/49/75
usemtl Black
f 60/52/76 62/53/77 59/54/76
f 62/53/77 60/52/76 61/55/76
f 64/56/76 60/52/76 63/57/76
f 60/52/76 64/56/76 61/55/76
f 60/52/76 66/58/76 65/59/76
f 66/58/76 60/52/76 59/54/76
f 63/57/76 60/52/76 67/60/77
f 67/60/77 60/52/76 65/59/76
f 26/61/78 53/62/78 52/63/78
f 53/62/78 26/61/78 19/64/78
f 51/65/79 53/62/80 19/64/79
f 51/65/79 19/64/79 49/66/79
f 55/67/81 54/68/81 50/69/81
f 55/67/81 50/69/81 18/70/81
f 55/67/82 26/61/82 52/63/82
f 26/61/82 55/67/82 18/70/82
f 51/65/83 20/71/83 57/72/83
f 20/71/83 51/65/83 49/66/83
f 56/73/84 57/72/84 20/71/84
f 20/71/84 25/74/84 56/73/84
f 58/75/85 50/69/85 54/68/85
f 50/69/85 58/75/85 17/76/85
f 56/73/86 17/76/86 58/75/86
f 17/76/86 56/73/86 25/74/86
f 53/62/77 61/77/76 52/63/76
f 61/77/76 53/62/77 62/78/77
f 62/78/77 51/65/76 59/79/76
f 51/65/76 62/78/77 53/62/77
f 64/80/76 54/68/76 55/67/76
f 54/68/76 64/80/76 63/81/76
f 55/67/76 52/63/76 61/77/76
f 55/67/76 61/77/76 64/80/76
f 66/82/76 59/79/76 51/65/76
f 51/65/76 57/72/76 66/82/76
f 65/83/76 57/72/76 56/73/76
f 57/72/76 65/83/76 66/82/76
f 54/68/76 67/84/77 58/75/77
f 67/84/77 54/68/76 63/81/76
f 58/75/77 65/83/76 56/73/76
f 65/83/76 58/75/77 67/84/77
